<?xml version="1.0" standalone="no"?>
<!DOCTYPE svg PUBLIC "-//W3C//DTD SVG 20010904//EN"
 "http://www.w3.org/TR/2001/REC-SVG-20010904/DTD/svg10.dtd">
<svg version="1.0" xmlns="http://www.w3.org/2000/svg"
 width="947.000000pt" height="947.000000pt" viewBox="0 0 947.000000 947.000000"
 preserveAspectRatio="xMidYMid meet">

<g transform="translate(0.000000,947.000000) scale(0.100000,-0.100000)"
fill="#000000" stroke="none">
<path d="M0 4735 l0 -4735 4735 0 4735 0 0 4735 0 4735 -4735 0 -4735 0 0
-4735z m3216 1916 c44 -11 104 -29 132 -40 142 -56 279 -181 345 -314 66 -136
70 -158 75 -494 l4 -303 -271 0 -271 0 0 218 c0 248 -8 293 -65 359 -52 61
-113 87 -210 87 -63 1 -91 -4 -133 -23 -65 -29 -124 -95 -152 -167 -20 -54
-20 -73 -20 -1181 0 -1248 -3 -1191 65 -1284 51 -71 126 -104 230 -103 93 1
136 17 197 72 75 67 82 96 88 352 l5 225 265 0 265 0 -1 -280 c0 -276 -1 -281
-28 -370 -37 -122 -79 -197 -155 -277 -113 -121 -279 -203 -454 -227 -111 -15
-296 -13 -402 4 -322 52 -529 236 -617 550 l-23 80 -3 1175 c-3 1226 -2 1284
39 1433 68 242 256 430 500 497 121 33 184 39 354 35 116 -3 182 -9 241 -24z
m4171 19 c233 -29 401 -107 536 -247 66 -68 102 -124 137 -216 68 -175 65
-104 65 -1437 l0 -1205 -23 -85 c-103 -388 -413 -600 -877 -600 -287 0 -487
71 -645 230 -122 122 -182 233 -215 395 -14 71 -15 211 -12 1305 3 1108 5
1232 20 1293 82 331 321 525 702 570 67 8 235 6 312 -3z m1849 -192 c-4 -95
-13 -321 -21 -503 -8 -181 -28 -654 -45 -1050 -16 -396 -32 -773 -36 -837 l-7
-118 -213 0 -214 0 0 72 c0 62 -27 740 -75 1898 -8 195 -18 435 -21 533 l-7
177 323 0 323 0 -7 -172z m-7536 -108 l0 -260 -439 0 -438 0 -7 -31 c-3 -16
-6 -244 -5 -505 l0 -474 389 0 390 0 0 -260 0 -260 -387 0 -388 0 3 -565 2
-565 445 0 445 0 0 -255 0 -255 -725 0 -725 0 0 1845 0 1845 720 0 720 0 0
-260z m3050 -510 l0 -770 294 0 295 0 -4 770 -4 770 294 0 295 0 0 -1850 0
-1850 -293 0 -293 0 1 825 0 825 -292 0 -293 0 0 -820 0 -819 -295 -3 -295 -3
0 1848 0 1847 295 0 295 0 0 -770z m570 -745 c0 -8 -4 -15 -10 -15 -5 0 -7 7
-4 15 4 8 8 15 10 15 2 0 4 -7 4 -15z m-533 -11 c-3 -3 -12 -4 -19 -1 -8 3 -5
6 6 6 11 1 17 -2 13 -5z m500 0 c-3 -3 -12 -4 -19 -1 -8 3 -5 6 6 6 11 1 17
-2 13 -5z m-487 -538 c0 -2 -9 -6 -20 -9 -11 -3 -20 -1 -20 4 0 5 9 9 20 9 11
0 20 -2 20 -4z m517 -18 c-3 -8 -6 -5 -6 6 -1 11 2 17 5 13 3 -3 4 -12 1 -19z
m0 -90 c-3 -8 -6 -5 -6 6 -1 11 2 17 5 13 3 -3 4 -12 1 -19z m3714 -894 c135
-40 219 -158 219 -309 0 -92 -25 -153 -89 -216 -48 -47 -67 -58 -123 -74 -141
-38 -281 -4 -363 87 -118 131 -94 369 46 469 80 57 205 74 310 43z"/>
<path d="M7113 6144 c-64 -23 -128 -86 -165 -162 l-33 -67 0 -1140 0 -1140 28
-60 c49 -105 115 -155 230 -176 112 -21 214 7 290 80 43 40 69 86 86 146 7 27
11 395 11 1155 1 1232 4 1167 -63 1266 -21 31 -51 58 -87 78 -50 28 -64 31
-155 33 -70 2 -112 -2 -142 -13z"/>
</g>
</svg>
